<?xml version="1.0" standalone="no"?>
<!DOCTYPE svg PUBLIC "-//W3C//DTD SVG 20010904//EN"
 "http://www.w3.org/TR/2001/REC-SVG-20010904/DTD/svg10.dtd">
<svg version="1.0" xmlns="http://www.w3.org/2000/svg"
 width="16.000000pt" height="16.000000pt" viewBox="0 0 16.000000 16.000000"
 preserveAspectRatio="xMidYMid meet">
<metadata>
Created by potrace 1.11, written by Peter Selinger 2001-2013
</metadata>
<g transform="translate(0.000000,16.000000) scale(0.006349,-0.006349)"
fill="#000000" stroke="none">
<path d="M504 2051 c-55 -25 -90 -64 -116 -131 -18 -46 -22 -76 -22 -180 -1
-108 2 -130 19 -160 43 -72 104 -39 250 136 49 58 104 118 122 134 18 16 33
38 33 48 0 30 -77 125 -122 150 -50 27 -108 28 -164 3z"/>
<path d="M1862 2015 c-41 -18 -95 -74 -121 -127 l-20 -41 38 -31 c21 -17 68
-67 104 -111 148 -180 189 -211 241 -187 30 13 49 78 52 177 7 201 -73 329
-209 333 -28 1 -67 -5 -85 -13z"/>
<path d="M948 1395 c-14 -8 -37 -32 -49 -52 -34 -55 -36 -57 -134 -140 -147
-123 -163 -165 -91 -234 58 -54 106 -78 139 -68 46 13 93 54 151 132 139 185
171 310 93 357 -38 23 -72 25 -109 5z"/>
<path d="M1488 1349 c-27 -15 -23 -72 12 -175 36 -107 63 -165 101 -221 41
-59 106 -120 134 -126 53 -10 133 85 121 144 -8 41 -44 115 -91 189 -94 147
-212 228 -277 189z"/>
<path d="M1065 720 c-10 -31 16 -63 95 -121 73 -53 118 -105 104 -119 -14 -13
-35 -14 -99 -5 -82 11 -106 13 -99 6 31 -32 401 -38 431 -7 5 4 -33 2 -144 -9
-38 -3 -43 -2 -43 17 0 25 63 86 136 133 34 22 55 44 62 64 10 29 9 33 -14 43
-18 9 -40 8 -88 0 -84 -16 -123 -15 -193 3 -85 22 -140 20 -148 -5z"/>
</g>
</svg>
